# xmcd CD database file
#
# Track frame offsets:
#	150
#	18432
#	33145
#
# Disc length: 620 seconds
#
# Revision: 2
# Processed by: cddbd v1.5.1PL0 Copyright (c) Steve Scherf et al.
# Submitted via: CDex 1.51
#
DISCID=16026a03
DTITLE=ブリーフ&トランクス - ペチャパイ
DYEAR=2001
DGENRE=Rock
TTITLE0=ペチャパイ
TTITLE1=さなだ虫
TTITLE2=星占い
EXTD=YEAR: 2001
EXTT0=
EXTT1=
EXTT2=
PLAYORDER=
